<?xml version="1.0" encoding="utf-8"?>
<!-- Generator: Adobe Illustrator 26.5.0, SVG Export Plug-In . SVG Version: 6.00 Build 0)  -->
<svg version="1.1" id="Layer_2_00000176730633243396510840000006232995089467721658_"
	 xmlns="http://www.w3.org/2000/svg" xmlns:xlink="http://www.w3.org/1999/xlink" x="0px" y="0px" viewBox="0 0 454 90"
	 style="enable-background:new 0 0 454 90;" xml:space="preserve">
<style type="text/css">
	.st0{fill:#FFFFFF;}
	.st1{fill:#F87440;}
</style>
<g id="Layer_1-2">
	<g>
		<g>
			<path class="st0" d="M125.5,88.2c-1.2,0-2.1-0.9-2.1-2.1v-10c0-1.2,0.9-2.1,2.1-2.1s2.1,0.9,2.1,2.1v10
				C127.6,87.3,126.7,88.2,125.5,88.2z"/>
			<path class="st0" d="M138.9,88.2c-1.2,0-2.1-0.9-2.1-2.1V74.8c0-1.2,0.9-2.1,2.1-2.1s2.1,0.9,2.1,2.1v11.3
				C141,87.3,140,88.2,138.9,88.2z"/>
			<path class="st0" d="M124.9,63.3c-0.1,0-0.2,0-0.4,0l-7.9-1.4c-1.1-0.2-1.9-1.3-1.7-2.4s1.3-1.9,2.4-1.7l4.4,0.8l-1.6-4.7
				c-0.4-1.1,0.2-2.3,1.3-2.7c1.1-0.4,2.3,0.2,2.7,1.3l2.7,8c0.2,0.7,0.1,1.5-0.4,2C126.1,63.1,125.6,63.3,124.9,63.3L124.9,63.3z"
				/>
			<path class="st0" d="M120.6,34.1c-0.8-0.9-2.3-0.8-3.4,0.1s-1.3,2.5-0.5,3.3c0.4,0.4,0.9,0.6,1.5,0.6c0.1,0,0.1,0,0.2,0
				c0.6,0,1.2-0.3,1.7-0.8c0.5-0.5,0.8-1,0.9-1.6C121.2,35.2,121,34.6,120.6,34.1L120.6,34.1z"/>
			<path class="st0" d="M112.2,33.1l-1.8-3.8c-0.5-1-1.7-1.5-2.8-1c-1.1,0.5-1.5,1.7-1,2.8l0.9,1.9l-1.9-0.3
				c-1.1-0.2-2.2,0.6-2.4,1.7s0.6,2.2,1.7,2.4l4.1,0.7c0.1,0,0.2,0,0.3,0c1,0,1.9-0.7,2.1-1.8C112.3,35.2,112.7,34,112.2,33.1
				L112.2,33.1z"/>
			<path class="st1" d="M51,63.3c-0.6,0-1.2-0.3-1.6-0.7c-0.5-0.6-0.6-1.3-0.4-2l2.7-8c0.4-1.1,1.5-1.7,2.7-1.3
				c1.1,0.4,1.7,1.5,1.3,2.7l-1.5,4.7l4.4-0.8c1.1-0.2,2.2,0.6,2.4,1.7s-0.6,2.2-1.7,2.4l-7.9,1.4C51.2,63.3,51.1,63.3,51,63.3
				L51,63.3z"/>
			<path class="st0" d="M58.7,34.3c-0.5-0.5-1.1-0.7-1.7-0.8c-0.7,0-1.2,0.2-1.6,0.6c-0.3,0.4-0.5,0.9-0.5,1.4c0,0.7,0.4,1.4,1,1.9
				c0.5,0.5,1.1,0.7,1.7,0.8c0,0,0.1,0,0.2,0c0.6,0,1.1-0.2,1.5-0.6C60,36.7,59.8,35.2,58.7,34.3z"/>
			<path class="st1" d="M72.8,34.4c-0.2-1.1-1.3-1.9-2.4-1.7l-1.9,0.3l0.9-1.9c0.5-1,0-2.3-1-2.8c-1.1-0.5-2.3,0-2.8,1l-1.8,3.8
				c-0.5,1-0.1,2.1,0.8,2.6c0.2,1,1.1,1.8,2.1,1.8c0.1,0,0.2,0,0.3,0l4.1-0.7C72.2,36.6,73,35.5,72.8,34.4L72.8,34.4z"/>
			<path class="st0" d="M153,43.7c-0.5,0-1.1-0.2-1.5-0.6c-0.8-0.8-0.8-2.2,0-3l17.4-17.4L151.5,5.4c-0.8-0.8-0.8-2.1,0-3
				c0.8-0.8,2.1-0.8,3,0l18.9,18.8c0.4,0.4,0.6,0.9,0.6,1.5s-0.2,1.1-0.6,1.5l-18.9,18.9C154.1,43.5,153.6,43.7,153,43.7L153,43.7z"
				/>
			<path class="st0" d="M23,43.7c-0.5,0-1.1-0.2-1.5-0.6L2.6,24.3C2.2,23.9,2,23.4,2,22.8s0.2-1.1,0.6-1.5L21.5,2.4
				c0.8-0.8,2.1-0.8,3,0s0.8,2.2,0,3L7.1,22.8l17.4,17.3c0.8,0.8,0.8,2.1,0,3C24.1,43.5,23.5,43.7,23,43.7L23,43.7z"/>
			<path class="st1" d="M82.4,43.7c-0.2,0-0.4,0-0.6-0.1c-1.1-0.3-1.7-1.5-1.4-2.6L92.3,3.3c0.3-1.1,1.5-1.7,2.6-1.4
				s1.7,1.5,1.4,2.6L84.4,42.2C84.1,43.1,83.3,43.7,82.4,43.7L82.4,43.7z"/>
			<path class="st0" d="M61.1,28c-6.8-4.1-14.9-4.2-20.5-0.2c-7.5,5.2-6.8,11.8-6.2,18.1c0.2,2.4,0.5,5,0.3,7.5
				c-0.2,3.1-1.2,5.2-3.1,6.5c-4,2.7-11.4,1.2-13.9,0.4c-0.9-0.3-1.9,0.1-2.4,0.9s-0.4,1.9,0.3,2.6c6,6.2,12.7,10.5,19.4,12.8v9.7
				c0,1.2,0.9,2.1,2.1,2.1s2.1-0.9,2.1-2.1v-8.6c2.2,0.5,4.4,0.7,6.6,0.7c0.9,0,1.7,0,2.5-0.1v8c0,1.2,0.9,2.1,2.1,2.1
				s2.1-0.9,2.1-2.1v-8.7c0.8-0.2,1.7-0.4,2.5-0.7c9.7-3.3,16.2-11.6,17.5-22.3C74,43,69.7,33.1,61.1,28L61.1,28z M68.4,54
				c-1.1,9-6.6,16.1-14.7,18.8c-5,1.7-10.5,1.7-16,0.1c0,0-0.1,0-0.1,0c-4.6-1.4-9.2-3.8-13.6-7.3c3.3,0.2,7.1-0.2,10.1-2.3
				c3-2,4.7-5.3,4.9-9.6c0.2-2.9,0-5.6-0.3-8.2C38,39.4,37.6,35,43,31.2c4.2-3,10.6-2.8,16,0.4C62.4,33.6,70.1,39.9,68.4,54z"/>
			<path class="st1" d="M130.1,78.2c-3.2,0-6.2-0.5-9.2-1.5c-9.7-3.3-16.2-11.6-17.5-22.3C102,43,106.3,33.1,114.8,28
				c6.8-4.1,14.9-4.2,20.5-0.2c7.5,5.2,6.8,11.8,6.1,18.1c-0.2,2.4-0.5,5-0.3,7.4c0.2,3.1,1.2,5.2,3.1,6.5
				c4.1,2.8,11.4,1.2,13.9,0.4c0.9-0.3,1.9,0.1,2.4,0.9c0.5,0.8,0.4,1.9-0.3,2.6C151.1,73.2,140.3,78.3,130.1,78.2L130.1,78.2z
				 M125.8,29.1c-2.9,0-6,0.8-8.8,2.5c-3.4,2-11.1,8.3-9.4,22.4c1.1,9,6.6,16.1,14.7,18.8c9.3,3.1,20,0.4,29.8-7.3
				c-3.3,0.2-7.1-0.2-10.1-2.2c-3-2-4.7-5.3-4.9-9.7c-0.2-2.8,0-5.5,0.3-8.2c0.6-6,1.1-10.4-4.4-14.2
				C130.9,29.7,128.4,29.1,125.8,29.1L125.8,29.1z"/>
		</g>
		<g>
			<path class="st0" d="M214.6,53.2c1,1.3,1.6,2.9,1.6,4.6c0,2.5-0.9,4.4-2.6,5.9s-4.1,2.2-7.2,2.2h-13.8V36.3h13.3
				c3,0,5.4,0.7,7.1,2.1s2.6,3.2,2.6,5.6c0,1.7-0.5,3.2-1.4,4.3c-0.9,1.2-2.1,2-3.6,2.4C212.1,51.1,213.5,51.9,214.6,53.2
				L214.6,53.2z M199.7,48.2h4.7c1.2,0,2.1-0.3,2.7-0.8s0.9-1.3,0.9-2.3s-0.3-1.8-0.9-2.3c-0.6-0.5-1.5-0.8-2.7-0.8h-4.7
				C199.7,42.1,199.7,48.3,199.7,48.2z M207.9,59.2c0.7-0.5,1-1.3,1-2.4s-0.3-1.8-1-2.5c-0.7-0.6-1.6-0.9-2.9-0.9h-5.2V60h5.3
				C206.3,60,207.2,59.8,207.9,59.2L207.9,59.2z"/>
			<path class="st0" d="M220,38.8c-0.8-0.7-1.2-1.7-1.2-2.8s0.4-2.1,1.2-2.8c0.8-0.8,1.8-1.1,3.1-1.1s2.3,0.4,3.1,1.1
				c0.8,0.7,1.2,1.7,1.2,2.8s-0.4,2-1.2,2.8c-0.8,0.8-1.8,1.1-3.1,1.1S220.8,39.5,220,38.8z M226.7,42.4v23.5h-7.2V42.4
				C219.5,42.4,226.7,42.4,226.7,42.4z"/>
			<path class="st0" d="M241.4,43.2c1.3-0.7,2.7-1.1,4.2-1.1v7.6h-2c-1.8,0-3.1,0.4-4.1,1.2c-0.9,0.8-1.4,2.1-1.4,4.1v10.9h-7.2
				V42.3h7.2v3.9C239.1,45,240.2,44,241.4,43.2L241.4,43.2z"/>
			<path class="st0" d="M249,47.7c0.9-1.8,2.2-3.2,3.7-4.2s3.3-1.5,5.3-1.5c1.5,0,3,0.3,4.2,1s2.3,1.5,3,2.6V34.7h7.2v31.2h-7.2
				v-3.4c-0.7,1.1-1.6,2-2.9,2.7s-2.7,1-4.4,1c-1.9,0-3.7-0.5-5.3-1.5s-2.8-2.4-3.7-4.3s-1.4-4-1.4-6.4S248.1,49.5,249,47.7
				L249,47.7z M263.8,49.9c-1-1-2.2-1.6-3.6-1.6s-2.6,0.5-3.6,1.5c-1,1-1.5,2.4-1.5,4.2s0.5,3.2,1.5,4.3s2.2,1.6,3.6,1.6
				s2.6-0.5,3.6-1.6s1.5-2.5,1.5-4.3S264.8,50.9,263.8,49.9z"/>
			<path class="st0" d="M281.8,65.2c-1.6-0.7-2.9-1.7-3.8-2.9c-0.9-1.2-1.5-2.6-1.6-4.1h7.1c0.1,0.8,0.5,1.5,1.1,2
				c0.7,0.5,1.5,0.8,2.5,0.8c0.9,0,1.6-0.2,2.1-0.5c0.5-0.3,0.7-0.8,0.7-1.4c0-0.7-0.4-1.2-1-1.5c-0.7-0.3-1.8-0.7-3.4-1.1
				c-1.7-0.4-3.1-0.8-4.2-1.2c-1.1-0.4-2.1-1.1-2.9-2.1s-1.2-2.2-1.2-3.8c0-1.3,0.4-2.6,1.1-3.7c0.7-1.1,1.8-2,3.3-2.6
				c1.5-0.7,3.2-1,5.2-1c3,0,5.3,0.7,7,2.2s2.7,3.4,2.9,5.8h-6.7c-0.1-0.8-0.5-1.5-1.1-1.9c-0.6-0.5-1.4-0.7-2.4-0.7
				c-0.8,0-1.5,0.2-1.9,0.5c-0.5,0.3-0.7,0.8-0.7,1.3c0,0.7,0.4,1.2,1.1,1.5s1.8,0.7,3.4,1c1.7,0.5,3.2,0.9,4.3,1.3
				c1.1,0.4,2.1,1.1,2.9,2.1c0.8,1,1.3,2.3,1.3,3.9c0,1.4-0.4,2.6-1.2,3.7c-0.8,1.1-1.9,1.9-3.3,2.6c-1.5,0.6-3.1,0.9-5,0.9
				C285.3,66.2,283.5,65.8,281.8,65.2L281.8,65.2z"/>
			<path class="st1" d="M301.9,43.2c1.3-2.3,3-4.1,5.3-5.4s4.8-1.9,7.7-1.9c3.5,0,6.5,0.9,9,2.8c2.5,1.9,4.2,4.4,5,7.6H321
				c-0.6-1.2-1.4-2.2-2.5-2.8c-1.1-0.7-2.3-1-3.7-1c-2.2,0-4,0.8-5.4,2.3s-2.1,3.6-2.1,6.2s0.7,4.7,2.1,6.2s3.2,2.3,5.4,2.3
				c1.4,0,2.6-0.3,3.7-1c1.1-0.7,1.9-1.6,2.5-2.8h7.9c-0.8,3.2-2.5,5.7-5,7.6s-5.5,2.8-9,2.8c-2.9,0-5.4-0.6-7.7-1.9s-4-3.1-5.3-5.3
				c-1.3-2.3-1.9-4.9-1.9-7.8S300.7,45.5,301.9,43.2L301.9,43.2z"/>
			<path class="st1" d="M337.9,64.7c-1.8-1-3.3-2.4-4.3-4.2s-1.6-4-1.6-6.4s0.5-4.5,1.6-6.4s2.5-3.2,4.4-4.2c1.9-1,3.9-1.5,6.2-1.5
				s4.4,0.5,6.2,1.5s3.3,2.4,4.4,4.2c1.1,1.8,1.6,4,1.6,6.4s-0.5,4.5-1.6,6.4s-2.6,3.2-4.4,4.2c-1.9,1-4,1.5-6.3,1.5
				S339.7,65.7,337.9,64.7L337.9,64.7z M347.6,58.5c1-1,1.5-2.5,1.5-4.3s-0.5-3.3-1.4-4.3s-2.1-1.5-3.5-1.5s-2.6,0.5-3.5,1.5
				s-1.4,2.5-1.4,4.4s0.5,3.3,1.4,4.3s2.1,1.5,3.4,1.5S346.6,59.5,347.6,58.5L347.6,58.5z"/>
			<path class="st1" d="M361,47.7c0.9-1.8,2.2-3.2,3.7-4.2s3.3-1.5,5.3-1.5c1.5,0,3,0.3,4.2,1s2.3,1.5,3,2.6V34.7h7.2v31.2h-7.2
				v-3.4c-0.7,1.1-1.6,2-2.9,2.7s-2.7,1-4.4,1c-1.9,0-3.7-0.5-5.3-1.5c-1.6-1-2.8-2.4-3.7-4.3s-1.4-4-1.4-6.4S360.1,49.5,361,47.7
				L361,47.7z M375.8,49.9c-1-1-2.2-1.6-3.6-1.6s-2.6,0.5-3.6,1.5c-1,1-1.5,2.4-1.5,4.2s0.5,3.2,1.5,4.3s2.2,1.6,3.6,1.6
				s2.6-0.5,3.6-1.6s1.5-2.5,1.5-4.3S376.8,50.9,375.8,49.9z"/>
			<path class="st1" d="M411.8,55.8h-16.3c0.1,1.5,0.6,2.6,1.4,3.3c0.8,0.8,1.9,1.2,3.1,1.2c1.8,0,3-0.8,3.8-2.3h7.7
				c-0.4,1.5-1.1,2.9-2.1,4.2c-1,1.2-2.3,2.2-3.9,2.9c-1.5,0.7-3.3,1.1-5.2,1.1c-2.3,0-4.4-0.5-6.2-1.5c-1.8-1-3.2-2.4-4.2-4.2
				c-1-1.8-1.5-4-1.5-6.4s0.5-4.6,1.5-6.4s2.4-3.2,4.2-4.2c1.8-1,3.9-1.5,6.2-1.5s4.3,0.5,6.1,1.4c1.8,1,3.2,2.3,4.1,4.1
				c1,1.8,1.5,3.8,1.5,6.2C411.9,54.4,411.9,55.1,411.8,55.8L411.8,55.8z M404.5,51.8c0-1.2-0.4-2.2-1.3-3s-1.9-1.1-3.2-1.1
				s-2.2,0.3-3.1,1s-1.3,1.7-1.5,3L404.5,51.8L404.5,51.8z"/>
			<path class="st1" d="M426.1,43.2c1.3-0.7,2.7-1.1,4.2-1.1v7.6h-2c-1.8,0-3.1,0.4-4,1.2s-1.4,2.1-1.4,4.1v10.9h-7.2V42.3h7.2v3.9
				C423.8,45,424.8,44,426.1,43.2L426.1,43.2z"/>
			<path class="st1" d="M437,65.2c-1.6-0.7-2.9-1.7-3.8-2.9c-0.9-1.2-1.5-2.6-1.6-4.1h7.1c0.1,0.8,0.5,1.5,1.1,2
				c0.7,0.5,1.5,0.8,2.5,0.8c0.9,0,1.6-0.2,2.1-0.5c0.5-0.3,0.7-0.8,0.7-1.4c0-0.7-0.4-1.2-1-1.5c-0.7-0.3-1.8-0.7-3.4-1.1
				c-1.7-0.4-3.1-0.8-4.2-1.2c-1.1-0.4-2.1-1.1-2.9-2.1s-1.2-2.2-1.2-3.8c0-1.3,0.4-2.6,1.1-3.7c0.7-1.1,1.8-2,3.3-2.6
				c1.5-0.7,3.2-1,5.2-1c3,0,5.3,0.7,7,2.2s2.7,3.4,2.9,5.8h-6.7c-0.1-0.8-0.5-1.5-1.1-1.9c-0.6-0.5-1.4-0.7-2.4-0.7
				c-0.8,0-1.5,0.2-1.9,0.5c-0.5,0.3-0.7,0.8-0.7,1.3c0,0.7,0.4,1.2,1.1,1.5s1.8,0.7,3.4,1c1.7,0.5,3.2,0.9,4.3,1.3
				c1.1,0.4,2.1,1.1,2.9,2.1c0.8,1,1.3,2.3,1.3,3.9c0,1.4-0.4,2.6-1.2,3.7c-0.8,1.1-1.9,1.9-3.3,2.6c-1.5,0.6-3.1,0.9-5,0.9
				C440.5,66.2,438.6,65.8,437,65.2L437,65.2z"/>
		</g>
	</g>
</g>
</svg>
